<?xml version="1.0" encoding="UTF-8" standalone="no"?>
<!-- Created with Inkscape (http://www.inkscape.org/) -->

<svg
   version="1.1"
   id="svg2"
   width="751.08301"
   height="884.46503"
   viewBox="0 0 751.08301 884.46503"
   sodipodi:docname="k6-node.svg"
   inkscape:version="1.2.2 (b0a8486541, 2022-12-01)"
   xmlns:inkscape="http://www.inkscape.org/namespaces/inkscape"
   xmlns:sodipodi="http://sodipodi.sourceforge.net/DTD/sodipodi-0.dtd"
   xmlns="http://www.w3.org/2000/svg"
   xmlns:svg="http://www.w3.org/2000/svg">
  <defs
     id="defs6" />
  <sodipodi:namedview
     id="namedview4"
     pagecolor="#ffffff"
     bordercolor="#666666"
     borderopacity="1.0"
     inkscape:showpageshadow="2"
     inkscape:pageopacity="0"
     inkscape:pagecheckerboard="0"
     inkscape:deskcolor="#d1d1d1"
     showgrid="false"
     inkscape:zoom="0.50292969"
     inkscape:cx="365.85631"
     inkscape:cy="513.98835"
     inkscape:window-width="1366"
     inkscape:window-height="688"
     inkscape:window-x="0"
     inkscape:window-y="0"
     inkscape:window-maximized="1"
     inkscape:current-layer="g170" />
  <g
     inkscape:groupmode="layer"
     inkscape:label="Image"
     id="g8"
     transform="translate(-138.91525,-65.534752)">
    <g
       id="g170">
      <path
         style="fill:#4dfe4d"
         d="m 505.39264,948.91185 c -14.39722,-2.40832 -30.72848,-9.47362 -40.94833,-17.71524 l -5.82394,-4.69661 -4.16385,-6.21999 -4.16386,-6.21999 -1.72388,-5.48066 -1.72388,-5.48067 -0.17245,-8.75659 -0.17245,-8.75659 -4.5,-2.66872 c -17.76777,-10.53717 -62.9908,-36.4403 -102,-58.42418 -9.625,-5.42423 -19.38828,-11.13403 -21.69617,-12.68843 l -4.19617,-2.82619 -7.77849,2.61116 -7.7785,2.61115 -6.52533,-0.37783 -6.52534,-0.37783 -7,-3.2735 c -3.85,-1.80042 -9.925,-5.00315 -13.5,-7.11717 -3.575,-2.11402 -15.275,-8.90298 -26,-15.08659 -10.725,-6.18361 -22.2,-12.92399 -25.5,-14.97862 -3.3,-2.05463 -11.61116,-7.04446 -18.46925,-11.08851 -6.85808,-4.04406 -15.65169,-9.8818 -19.54134,-12.97276 l -7.0721,-5.61994 -5.09039,-6.90377 c -6.13311,-8.31794 -10.38247,-16.58639 -13.17281,-25.63181 l -2.07547,-6.72802 -1.03932,-10.12793 L 146,683.78809 v -76.20291 -76.20292 l 1.5,-1.94113 1.5,-1.94113 1.5,1.94113 1.5,1.94113 0.0198,79.05887 0.0198,79.05887 0.99732,7 c 1.28801,9.04027 4.3003,18.24495 8.82566,26.96866 l 3.61494,6.96866 5.84641,6.24983 c 7.75658,8.29181 15.92222,14.16858 35.17605,25.316 17.10469,9.90313 38.35336,22.3766 55.66619,32.67734 5.8664,3.49038 13.7414,7.80266 17.5,9.58283 L 286.5,807.5 h 8 8 l 1.7733,-1.05279 1.7733,-1.05279 -25.2733,-14.35172 c -13.90032,-7.89344 -27.81006,-15.85894 -30.91054,-17.70111 -3.10048,-1.84217 -13.67548,-7.52448 -23.5,-12.62736 -9.82452,-5.10289 -21.67884,-11.51363 -26.34293,-14.2461 l -8.48017,-4.96813 -7.04383,-7 -7.04382,-7 -4.16081,-8.02737 c -2.28844,-4.41505 -5.18523,-11.39005 -6.43733,-15.5 L 164.57734,696.5 164.28648,601 c -0.15997,-52.525 -0.50904,-96.45508 -0.7757,-97.62241 l -0.48484,-2.1224 -2.79822,-0.55965 c -1.53902,-0.3078 -4.98687,-2.05272 -7.66189,-3.87759 l -4.86366,-3.31795 -2.82458,-4 -2.82459,-4 -1.56887,-6.1897 -1.56888,-6.18971 0.32592,-73.81029 0.32591,-73.8103 2.28728,-7.49288 c 6.71913,-22.01123 12.33025,-27.54708 49.79823,-49.13025 12.56608,-7.2386 30.49741,-17.67567 39.84741,-23.19349 9.35,-5.51782 21.95387,-12.8695 28.00861,-16.33707 l 11.00861,-6.30466 7.99139,-2.05435 7.99139,-2.05436 5.54488,0.19023 5.54487,0.19023 38.95513,-23.31857 C 357.97019,183.16961 381.125,169.24721 388,165.05616 c 6.875,-4.19105 20.7125,-12.53807 30.75,-18.54894 l 18.25,-10.92884 0.0174,-3.53919 c 0.01,-1.94655 0.67582,-6.68919 1.48059,-10.53919 l 1.46323,-7 3.75866,-7.45142 3.75866,-7.45142 5.44032,-5.876191 C 480.74744,63.662739 527.59788,56.900049 568.5,77.037246 l 8,3.938611 6.09916,5.003597 6.09917,5.003598 4.10222,5.848117 c 6.67043,9.509351 8.22118,14.694191 10.9589,36.640391 l 0.74494,5.97156 2.03354,1.02844 c 2.34791,1.18742 40.23577,23.72408 45.46207,27.04199 4.80232,3.04875 26.25093,15.84325 39.09271,23.31954 L 701.68541,197 h 2.07439 c 1.14091,0 4.0242,-0.82455 6.40729,-1.83234 2.3831,-1.00779 7.14901,-2.42004 10.59092,-3.13834 l 6.258,-1.30601 5.13463,0.60813 5.13463,0.60812 4.60737,2.42418 c 2.53405,1.3333 18.10736,10.64223 34.60736,20.68651 16.5,10.04427 37.875,22.96622 47.5,28.71544 9.625,5.74922 21.18683,12.90352 25.69297,15.89846 l 8.19296,5.44533 5.33985,5.76767 5.33984,5.76767 3.62967,6.92759 c 1.99631,3.81017 4.41637,9.62759 5.37791,12.92759 l 1.74826,6 0.41929,43.5 c 0.23061,23.925 0.1259,45.8625 -0.23269,48.75 l -0.65197,5.25 h -1.39286 c -0.76608,0 -1.8587,-0.87042 -2.42805,-1.93426 L 874,396.13148 873.9826,352.81574 873.9652,309.5 l -1.46462,-7 -1.46463,-7 -3.94461,-8.00412 -3.94461,-8.00412 -5.8234,-5.79892 -5.8234,-5.79892 -8.5,-5.33056 c -4.675,-2.93181 -17.95,-11.06506 -29.5,-18.07389 -11.55,-7.00883 -30,-18.25502 -41,-24.99153 -11,-6.73651 -23.72347,-14.3965 -28.27438,-17.02221 l -8.27439,-4.774 -4.83013,-0.46412 -4.83014,-0.46411 -5.68106,1.65153 c -3.12458,0.90834 -6.86302,2.10091 -8.30764,2.65015 l -2.62659,0.99863 12.41217,7.32855 c 6.82669,4.03071 26.81216,15.99567 44.41216,26.58882 17.6,10.59314 40.55,24.21704 51,30.27534 31.99686,18.54991 39.44391,26.57187 45.70499,49.23348 l 2.21028,8 0.34894,76.75953 0.34894,76.75952 2.56166,2.74048 c 13.50448,14.44713 18.26846,25.42501 20.28359,46.74047 l 1.03993,11 -0.0876,34 c -0.0482,18.7 -0.44977,50.875 -0.89247,71.5 l -0.8049,37.5 -1.63127,6.40508 c -0.8972,3.52279 -3.34154,10.04779 -5.43187,14.5 l -3.8006,8.09492 -5.16106,6.18965 -5.16106,6.18965 -6.32742,4.51515 c -3.48008,2.48333 -9.89878,6.03095 -14.26377,7.88359 -4.36499,1.85265 -12.88635,6.43875 -18.93635,10.19136 -19.5497,12.12599 -56.5825,34.0229 -104.5,61.78921 -15.675,9.08304 -39.3,22.78276 -52.5,30.44382 -13.2,7.66106 -31.875,18.37324 -41.5,23.80486 -9.625,5.43161 -17.66286,9.98986 -17.86191,10.12943 -0.19905,0.13958 0.14753,4.66591 0.77018,10.05853 l 1.1321,9.80475 -1.11345,6 c -0.6124,3.3 -2.27842,8.475 -3.70227,11.5 l -2.58882,5.5 -5.46767,5.35254 c -12.32456,12.06508 -38.9906,25.5681 -58.376,29.56017 L 534.08432,950 522.29216,949.8831 c -6.48569,-0.0643 -14.09047,-0.50136 -16.89952,-0.97125 z m 34.09452,-6.42661 c 20.85107,-4.41669 46.84477,-17.52758 57.35376,-28.92848 l 4.33827,-4.70647 2.5795,-5.63437 2.5795,-5.63437 -0.14656,-10.96825 -0.14657,-10.96824 -0.77253,-0.73188 -0.77253,-0.73188 -24.49303,13.93038 -24.49303,13.93039 -7.8207,3.01599 c -4.30139,1.65879 -10.60453,3.75891 -14.00698,4.66693 l -6.18626,1.65095 -12,0.002 -12,0.002 -10,-2.76244 -10,-2.76244 -10,-4.86902 c -5.5,-2.67796 -12.41879,-6.26392 -15.3751,-7.9688 -6.5317,-3.76679 -6.11044,-4.24111 -5.09734,5.73928 l 0.83806,8.25593 2.31719,4.6726 c 7.50297,15.12969 27.6258,27.40471 51.81719,31.60872 1.375,0.23895 7.45,0.48792 13.5,0.55327 l 11,0.11882 6.98716,-1.48003 z M 526.5,904.53025 c 15.22163,-2.47218 26.96857,-7.51627 53.34517,-22.90619 6.96016,-4.06103 15.35483,-8.9276 18.65483,-10.8146 l 6,-3.4309 0.54728,-6.95479 0.54727,-6.95478 2.18066,-4.50463 2.18065,-4.50462 4.27207,-4.09222 4.27207,-4.09221 38,-22.44666 c 20.9,-12.34567 49.25,-29.1306 63,-37.29985 13.75,-8.16924 29.275,-17.30451 34.5,-20.30059 5.225,-2.99608 9.9275,-5.8481 10.45,-6.33782 L 765.4,749 H 497.4344 229.4688 l -3.45222,-1.85144 c -1.89872,-1.0183 -4.35647,-3.0626 -5.46167,-4.54289 l -2.00946,-2.69145 0.0282,-3.70711 0.0282,-3.70711 9.79302,-21.5 c 10.04474,-22.05264 22.54842,-49.3121 29.12691,-63.5 2.04014,-4.4 6.07018,-13.175 8.95565,-19.5 37.20288,-81.54953 64.95323,-142.09187 76.54657,-167 7.80783,-16.775 17.9273,-38.6 22.48772,-48.5 4.56043,-9.9 12.85302,-27.675 18.428,-39.5 l 10.13631,-21.5 2.47797,-2.21575 c 1.36288,-1.21866 4.33093,-2.7147 6.59568,-3.32453 l 4.11771,-1.10879 4.11634,1.39305 4.11634,1.39304 28.5,20.97064 c 36.87186,27.13074 73.89295,53.80111 76.74249,55.28606 l 2.24248,1.16861 3.69391,-5.78117 C 528.71053,416.10152 540.02867,398.875 551.83031,381 c 40.92561,-61.98676 51.51212,-78.40374 87.31005,-135.39576 l 21.29068,-33.89577 3.03448,-1.85049 3.03448,-1.8505 5.1062,-0.004 5.1062,-0.004 4.51384,3.44658 4.51385,3.44658 1.50805,3.80342 c 0.82942,2.09188 1.77437,5.15342 2.09989,6.80342 1.53722,7.79188 10.39369,50.02117 16.14871,77 3.51971,16.5 8.88038,41.925 11.9126,56.5 9.22588,44.34614 35.70054,169.50851 40.08353,189.5 1.32641,6.05 5.83521,26.75 10.01954,46 4.18433,19.25 9.81148,44.9 12.50477,57 C 788.41785,689.24127 798,732.92 798,733.47189 798,733.76235 798.72183,734 799.60407,734 h 1.60407 l 5.6573,-5.7816 5.65729,-5.7816 3.64229,-6.9684 c 5.03916,-9.6409 6.6828,-15.82539 8.36329,-31.4684 l 1.45028,-13.5 0.0464,-83 0.0464,-83 0.85662,-9.57872 0.85662,-9.57872 2.07868,-4.07455 2.07869,-4.07456 3.77902,-3.12499 c 2.07846,-1.71875 5.50148,-3.64398 7.60671,-4.27829 l 3.8277,-1.1533 4.6723,1.03322 c 2.56977,0.56827 5.4883,1.38405 6.48562,1.81285 l 1.81332,0.77963 -0.40003,-74.88129 -0.40003,-74.88128 -1.2126,-4.5 c -0.66694,-2.475 -2.95754,-8.1 -5.09023,-12.5 l -3.87762,-8 -4.99912,-5.5773 C 838.26792,285.36367 834.06893,282.46376 812,269.72129 792.78907,258.62901 768.25753,244.05884 730.10121,221.07861 l -27.26603,-16.42139 -6.93199,1.79792 -6.93198,1.79793 -4.5895,-0.0921 c -6.513,-0.13073 -6.86181,-0.28813 -26.31574,-11.87434 -9.66129,-5.75398 -24.49648,-14.58487 -32.96711,-19.6242 L 609.69771,167.5 l -3.35022,-4.5 -3.35021,-4.5 -2.12056,-7 c -2.6866,-8.86848 -1.58688,-7.92144 -26.37672,-22.71471 l -21,-12.53168 -6.5,-2.53902 c -3.575,-1.39646 -8.525,-3.11343 -11,-3.81549 l -4.5,-1.27648 -11.5,-0.0427 -11.5,-0.0427 -8,2.29196 c -10.43171,2.98862 -23.02711,9.00669 -42.61418,20.36101 L 442,140.39885 l -0.0148,4.05057 c -0.0363,9.94179 -5.14495,23.87236 -11.46024,31.25036 l -3.53105,4.12524 -8.74697,5.47674 C 403.24835,194.69283 291.87058,259.47478 255,280.25299 c -23.63784,13.32097 -31.51092,17.97907 -36.27152,21.46002 l -4.77153,3.48893 -4.34374,6.14903 c -2.38906,3.38197 -5.52869,9.14908 -6.97697,12.81581 l -2.63322,6.66678 -1.11651,7.83322 -1.11652,7.83322 0.61812,35 c 0.33996,19.25 0.89875,47.15 1.24176,62 l 0.62365,27 -1.16601,7.44451 c -1.99962,12.7668 -5.99552,19.10408 -14.58751,23.13498 l -4,1.87659 -5.25,0.022 -5.25,0.022 -0.0537,2.25 c -0.0295,1.2375 -0.01,43.2 0.0443,93.25 l 0.098,91 1.52877,7.40767 c 5.64934,27.37404 13.94199,36.13213 53.88271,56.90697 17.82717,9.27265 41.23435,22.24302 68,37.68012 4.95,2.85491 11.38372,6.46958 14.29716,8.03259 l 5.29716,2.84184 7.70284,-3.26793 c 4.23656,-1.79736 9.94649,-4.13043 12.68872,-5.18459 L 338.47177,792 l 4.51411,0.0326 4.51412,0.0326 5.0378,1.74185 5.03779,1.74185 40.8931,23.97551 40.89311,23.9755 3.60493,3.6499 c 1.98272,2.00744 4.93119,6.27119 6.55217,9.475 l 2.94723,5.8251 0.38194,10.31789 0.38194,10.31789 7.635,4.51113 C 477.985,897.71215 492.19045,903.1936 506,905.01304 c 8.59779,1.13278 10.88364,1.07893 20.5,-0.48288 z m -80.49828,-40.02196 -1.11316,-5.36204 -3.01893,-4.16752 -3.01893,-4.16752 -7.17535,-4.45459 c -10.34097,-6.41987 -54.01433,-32.38126 -67.99486,-40.41917 l -11.91432,-6.84997 -4.37641,-0.65628 -4.37641,-0.65629 -3.75668,0.69676 C 334.44713,799.36369 321,804.92471 321,806.02165 c 0,0.45926 8.8875,5.88871 19.75,12.06545 34.70347,19.73342 78.32982,44.71064 92.25,52.81551 l 13.5,7.86023 0.30744,-4.44625 c 0.16909,-2.44544 -0.19348,-6.85917 -0.80572,-9.8083 z M 644,845.21732 c 9.075,-5.24102 22.35,-12.88343 29.5,-16.98312 7.15,-4.09969 17.725,-10.258 23.5,-13.68513 5.775,-3.42712 26.7,-15.58488 46.5,-27.01723 36.2226,-20.91462 42.10189,-24.37728 70.5,-41.52148 l 15.5,-9.35749 8.57126,-8.57643 8.57127,-8.57644 4.62626,-9.5 4.62626,-9.5 1.74148,-7.5 1.74149,-7.5 0.35461,-103.27936 0.35461,-103.27937 -4.29362,-1.94867 c -2.36149,-1.07177 -5.58235,-1.95856 -7.15747,-1.97064 l -2.86384,-0.022 -3.89509,2.18916 c -4.17366,2.34573 -6.45624,5.19905 -8.14993,10.18774 l -1.06031,3.1231 -0.7101,96 -0.7101,96 -1.20512,8.5 c -3.60849,25.45138 -13.87565,40.7097 -36.62241,54.42564 l -5.91925,3.56922 -5.90561,0.003 -5.90561,0.003 -3.09439,2.32314 c -2.85563,2.14389 -25.56802,15.86005 -66.59439,40.21678 -9.075,5.38769 -24.15,14.37749 -33.5,19.97734 -9.35,5.59985 -24.2,14.37147 -33,19.49249 -8.8,5.12101 -17.74788,10.67441 -19.88417,12.34089 l -3.88417,3.02995 -2.35606,5.0597 -2.35606,5.05971 -0.01,3.68269 -0.01,3.68268 8.25,-4.55945 c 4.5375,-2.5077 15.675,-8.84757 24.75,-14.0886 z M 862.28183,716.9173 869.5,710.23865 l 3.32079,-5.53472 c 4.10409,-6.84026 7.73295,-17.10384 9.11453,-25.77885 l 1.04712,-6.57492 0.47479,-70.42508 0.4748,-70.42508 -1.01545,-8.35667 -1.01546,-8.35667 -2.84284,-7.78958 -2.84284,-7.78957 -4.10287,-6.04174 c -2.25657,-3.32295 -4.5348,-6.30869 -5.06273,-6.63497 l -0.95986,-0.59322 -0.37177,99.78121 -0.37176,99.78121 -1.58421,7 c -2.83391,12.52199 -7.68311,23.33504 -14.53544,32.41206 l -2.5758,3.41206 4.20633,-2.36409 c 2.31347,-1.30025 7.4545,-5.36948 11.4245,-9.04273 z M 600.5,670.4956 l 7,-1.46967 7.5,-3.6722 7.5,-3.67221 7.60324,-7.59076 7.60324,-7.59076 3.54979,-7.5 c 7.68976,-16.24696 7.60945,-32.4181 -0.23821,-47.96422 l -3.00036,-5.94369 -6.07136,-6.4903 c -9.87607,-10.55755 -21.62445,-17.25775 -34.66554,-19.77005 -3.17944,-0.6125 -6.14549,-1.43741 -6.59123,-1.83312 l -0.81042,-0.71947 16.19834,-23.80041 c 8.90909,-13.09022 16.24878,-24.35701 16.31043,-25.03731 l 0.11208,-1.23691 -13.85865,-9.60226 c -16.15286,-11.19186 -14.51256,-10.69245 -17.55408,-5.34456 -1.32701,2.33327 -8.56641,14.1423 -16.08757,26.2423 -40.80246,65.64279 -43.3825,70.1292 -46.50321,80.86406 l -1.67834,5.7733 -0.0261,9.35916 -0.0261,9.35917 1.23443,5.32215 c 1.71283,7.38476 6.17871,16.52982 11.07539,22.67979 l 4.13194,5.1895 6.21283,4.43338 c 7.04929,5.03027 13.58902,8.0645 21.57951,10.01222 l 5.5,1.34064 8.5,0.066 8.5,0.066 7,-1.46967 z M 577.74797,640.57325 C 570.5444,638.00255 564.95335,632.49339 561.94323,625 l -1.40596,-3.5 0.0714,-5.5 0.0714,-5.5 2.03415,-4.5 c 2.60171,-5.75556 7.61452,-10.77636 13.11875,-13.13964 L 580.16587,591 h 5.23896 5.23895 l 4.48415,1.5279 c 2.46628,0.84035 6.03867,2.80928 7.93865,4.3754 l 3.45452,2.8475 2.43962,4.8746 2.43963,4.8746 0.40674,5.56614 0.40675,5.56614 -2.22016,5.16091 -2.22016,5.16091 -4.29176,3.95601 -4.29177,3.956 -5.27646,1.56695 c -6.36305,1.88962 -11.14702,1.93111 -16.1655,0.14019 z M 446,647 v -24 h 0.75945 c 0.4177,0 1.31215,0.88501 1.98767,1.96668 0.67551,1.08167 8.26078,10.85189 16.85613,21.71159 8.59536,10.85971 16.30267,20.7747 17.12735,22.03333 L 484.23002,671 h 20.96832 20.96833 l -0.33334,-0.90913 C 525.65,669.59085 518.525,660.73179 510,650.40407 c -8.525,-10.32771 -19.2125,-23.27927 -23.75,-28.78124 -9.99455,-12.11895 -11.83985,-6.76626 12.27632,-35.61017 24.18964,-28.93177 22.87227,-23.96638 9.10254,-34.3091 l -11.37115,-8.54109 -24.2566,28.4387 c -13.34113,15.64129 -24.5697,28.6322 -24.95237,28.86871 l -0.69576,0.43 0.44371,-45.19994 0.44372,-45.19994 -6.37021,-5.08463 C 437.36659,502.61882 430.225,497.0522 425,493.04509 l -9.5,-7.28564 -0.61941,23.87028 c -0.34068,13.12865 -0.96133,54.80777 -1.37923,92.62027 L 412.74155,671 H 429.37077 446 Z M 180.91673,496.02388 c 4.5083,-1.29296 7.86786,-4.53231 10.39586,-10.02388 l 2.07154,-4.5 0.16645,-22.5 c 0.0916,-12.375 -0.24678,-43.45104 -0.75185,-69.05786 l -0.91831,-46.55786 2.03088,-9.94136 2.03089,-9.94136 3.6706,-7.42696 3.67061,-7.42697 6.6083,-6.57381 6.6083,-6.57382 15,-8.62785 c 87.1614,-50.13436 109.8627,-63.22235 127.5,-73.50763 11.275,-6.57507 28.99693,-16.88439 39.38207,-22.90959 L 417.26413,179.5 l 5.34382,-4.8283 5.34382,-4.82831 3.0338,-6.17169 3.0338,-6.1717 1.10612,-6.30086 c 1.63872,-9.3347 6.18923,-11.19837 -38.62549,15.81906 -12.1,7.29472 -30.1,18.0944 -40,23.99928 -26.24976,15.65674 -69.67991,41.86085 -79.5,47.96729 -12.34698,7.67774 -60.06114,36.48999 -70,42.26958 -11.6935,6.79993 -17.11629,10.93538 -23.04228,17.57216 l -5.06586,5.67349 -2.92431,6 c -1.60837,3.3 -3.69453,8.7 -4.63591,12 l -1.7116,6 -0.377,83.39959 -0.37699,83.39959 1.31697,0.8351 c 1.77823,1.12758 6.58969,1.07809 10.73371,-0.1104 z M 163.5,412.1655 V 329.5 l 1.64853,-6.5 c 2.21804,-8.7455 5.90724,-16.83602 10.96478,-24.04603 l 4.1932,-5.97782 6.59674,-5.31503 6.59675,-5.31503 31.5,-18.79815 c 36.1865,-21.59489 62.21013,-37.67114 61.74064,-38.14063 -1.89817,-1.89818 -16.02072,4.15203 -32.74064,14.02633 -18.42207,10.87955 -33.95506,19.92825 -55,32.04013 -11.275,6.48903 -24.26171,14.28753 -28.85936,17.33 l -8.35935,5.53176 -3.96252,5.01296 c -6.56974,8.31134 -9.92976,16.32676 -11.82973,28.22015 l -1.06237,6.65013 v 70.2551 l -1e-5,70.25509 2.03425,5.437 2.03424,5.437 3.25242,3.09893 c 3.83652,3.65546 9.9293,7.45506 10.70612,6.67659 C 163.25416,495.07737 163.5,457.63153 163.5,412.1655 Z M 694.98213,201.05961 696.46427,201 l -3.67908,-2.5 c -2.0235,-1.375 -3.95196,-2.5 -4.28547,-2.5 -0.33351,0 -18.65825,-10.84324 -40.72165,-24.09608 -22.0634,-13.25285 -40.70854,-24.32374 -41.43364,-24.60199 l -1.31836,-0.5059 2.19265,5.27609 2.19264,5.2761 3.54432,3.66618 3.54432,3.66618 31.11633,18.58039 31.11633,18.58039 2.88367,0.3302 c 1.58602,0.18161 4.90867,0.0191 7.38367,-0.36107 2.475,-0.3802 5.16696,-0.71809 5.98213,-0.75088 z M 598,133.03546 c 0,-1.0805 -0.87736,-6.4905 -1.94968,-12.02222 l -1.94968,-10.05767 -2.77798,-5.22779 L 588.54468,100.5 582.02234,93.998903 575.5,87.497806 568.39026,83.768082 c -3.91035,-2.051348 -11.78535,-5.29033 -17.5,-7.197736 L 540.5,73.102333 l -9,-1.12785 -9,-1.127849 -7.5,0.649917 c -9.91687,0.859353 -18.27655,2.811034 -27.73731,6.475655 L 479.5,80.979079 472.40964,85.73954 C 454.0206,98.085921 443,114.94436 443,130.72806 v 2.40813 l 2.75,-1.91429 c 1.5125,-1.05285 5.9,-3.62088 9.75,-5.70672 3.85,-2.08584 10.375,-5.69447 14.5,-8.01917 29.46584,-16.6059 51.48527,-19.413533 77.75275,-9.91402 l 7.25276,2.62293 20.68536,12.39754 C 597.97215,135.9565 598,135.96952 598,133.03546 Z"
         id="path172"
         inkscape:label="path172" />
    </g>
    <path
       style="fill:none;stroke-width:2.19398"
       d="m 414.89519,598.40899 c 0.12777,-38.91579 0.86824,-79.36517 1.64548,-89.88753 l 1.41318,-19.13156 13.64766,10.35563 13.64766,10.35562 0.0647,45.70799 c 0.0356,25.13939 0.92,45.37889 1.96533,44.97666 1.04533,-0.40223 12.03758,-12.57884 24.42721,-27.05913 12.38964,-14.48029 23.29419,-26.62767 24.23235,-26.99418 2.56148,-1.00068 19.46819,11.25157 19.56406,14.17803 0.0458,1.39796 -8.30873,12.59533 -18.5656,24.88306 -10.25687,12.28773 -18.64886,23.75081 -18.64886,25.47351 0,1.72271 10.05857,15.20765 22.35237,29.96653 l 22.35237,26.83434 -17.22198,0.64717 c -9.47209,0.35594 -18.41714,0.18855 -19.87791,-0.37201 -1.46075,-0.56055 -10.9273,-11.70471 -21.03677,-24.7648 l -18.38084,-23.74562 -0.62035,24.66612 -0.62035,24.66613 h -15.286 -15.28603 z"
       id="path364" />
    <path
       style="fill:none;stroke-width:2.19398"
       d="m 511.92229,947.89227 c -11.78132,-1.08183 -19.89728,-3.5037 -32.32648,-9.64655 -21.13851,-10.4472 -29.68936,-21.61152 -31.4535,-41.06683 l -1.17705,-12.98052 -66.78773,-38.24719 -66.78775,-38.24719 -8.36979,2.95304 c -13.88949,4.9005 -18.92635,3.04336 -66.97279,-24.69333 -48.04848,-27.73787 -67.37877,-41.30264 -75.1301,-52.72149 -14.62557,-21.54566 -14.5897,-21.2756 -15.43201,-116.18437 -0.51086,-57.56286 -0.0224,-86.11385 1.47326,-86.11385 1.47238,0 2.45739,29.82234 2.8805,87.21085 l 0.643,87.21084 6.33059,13.70687 c 8.59347,18.6064 18.27719,26.84968 61.86152,52.65966 55.80367,33.04608 65.14438,37.85154 73.50202,37.81409 7.13434,-0.032 15.12084,-3.12043 12.91816,-4.99557 -1.76839,-1.50544 -70.13975,-39.75338 -92.30821,-51.63858 -26.51176,-14.21376 -38.87674,-26.82533 -45.4843,-46.39138 -4.58593,-13.57966 -4.75308,-17.43057 -4.7588,-109.63478 l -0.006,-95.56077 -8.22151,-4.38797 c -15.60453,-8.32843 -15.8932,-10.06992 -15.89704,-95.90448 -0.005,-107.96924 -5.91638,-97.27387 82.27097,-148.84748 45.09202,-26.37066 59.10801,-32.78695 71.62112,-32.78695 4.16767,0 28.6951,-13.59953 74.79524,-41.47114 l 68.59402,-41.47115 1.41011,-9.71351 c 5.52406,-38.052025 51.83789,-66.42821 95.89722,-58.755606 42.89606,7.470023 61.7738,25.129238 67.33256,62.986326 l 1.35194,9.20719 47.97316,28.63903 c 26.38521,15.75147 49.75555,28.62404 51.93406,28.60572 2.1785,-0.0182 8.36189,-1.34905 13.74086,-2.95719 5.62085,-1.68045 12.61856,-2.27561 16.45487,-1.3995 6.97046,1.59186 106.80709,61.29482 122.44903,73.22531 5.32791,4.06375 11.37426,11.67308 14.83521,18.6701 5.5063,11.13214 5.91454,14.15711 7.10598,52.65444 0.69523,22.46408 0.51872,45.2866 -0.39226,50.71671 -1.08071,6.44195 -1.97904,-7.66315 -2.58502,-40.58869 -1.29469,-70.34945 1.24134,-66.63961 -78.79143,-115.25995 -62.73658,-38.11282 -63.47108,-38.44968 -76.11536,-34.9095 -5.25966,1.47261 -9.97168,3.33869 -10.47116,4.14685 -0.49946,0.80816 28.74134,19.13547 64.97956,40.72737 71.84486,42.80748 79.31899,48.86707 85.85695,69.60791 3.25316,10.32015 3.7635,22.24568 3.7635,87.94276 v 76.00358 l 8.58139,11.33796 c 14.03733,18.54653 14.45543,21.8065 14.45543,112.71111 0,72.64363 -0.41692,82.37252 -3.96606,92.54611 -6.31211,18.09358 -16.50455,29.53288 -34.79842,39.05534 -8.8468,4.60499 -33.85637,18.94858 -55.5768,31.87463 -36.95871,21.99451 -152.87032,89.27167 -174.08636,101.04283 l -9.5376,5.29169 1.38871,10.46848 c 3.6107,27.21883 -14.24668,47.64108 -54.18501,61.96768 -17.74057,6.36387 -25.63393,7.34937 -44.78247,5.59104 z m 32.79046,-5.73312 c 26.93517,-6.97959 54.14337,-24.10944 59.80082,-37.64961 3.55778,-8.51498 4.35743,-28.14813 1.22527,-30.0839 -1.09701,-0.67799 -13.42327,5.23557 -27.39168,13.14121 -49.93625,28.26222 -69.08674,29.797 -110.64693,8.86765 l -15.73964,-7.92636 v 8.91246 c 0,32.50681 48.9112,56.09889 92.75216,44.73855 z m -5.93953,-39.28351 c 5.95079,-1.78174 23.16079,-10.0995 38.24443,-18.48392 27.23251,-15.1375 27.43357,-15.30735 28.67521,-24.22987 0.68772,-4.94201 3.23893,-11.64891 5.66934,-14.90417 2.50544,-3.35576 35.96924,-24.56359 77.27958,-48.97631 40.07335,-23.68168 74.0026,-44.19958 75.39832,-45.5953 1.92097,-1.92096 -62.78755,-2.53771 -266.25036,-2.53771 -267.4672,0 -268.81166,-0.022 -273.58973,-4.47345 -2.64091,-2.46038 -4.80167,-5.74273 -4.80167,-7.29409 0,-1.55137 31.44835,-71.36386 69.88521,-155.13886 95.63838,-208.44852 105.19487,-228.70241 109.39481,-231.8501 2.01261,-1.50836 5.77692,-2.74248 8.36514,-2.74248 2.62674,0 28.69181,17.44779 58.99623,39.49171 29.85972,21.72043 55.09253,39.4917 56.07291,39.4917 2.13676,0 55.58977,-80.85062 103.71177,-156.86982 19.09661,-30.16727 36.35553,-56.0837 38.35318,-57.59206 5.35431,-4.04292 10.62746,-3.35873 16.90931,2.19398 5.15837,4.55961 8.34124,18.00074 41.69289,176.06717 19.85949,94.12189 44.55199,209.56715 54.87218,256.54501 10.32021,46.97786 18.76402,86.22274 18.76402,87.21084 0,3.77348 5.99289,1.54911 11.41506,-4.23691 8.75265,-9.33998 14.69811,-23.07042 17.05848,-39.39493 1.18543,-8.19838 2.18038,-55.38515 2.21101,-104.85948 0.0349,-56.2307 0.92408,-93.0805 2.37207,-98.29489 2.79167,-10.05312 13.39093,-17.68921 21.75207,-15.67097 2.99422,0.72277 6.28923,1.48478 7.32222,1.69341 1.033,0.20864 1.73615,-34.52062 1.56256,-77.17607 -0.30766,-75.59903 -0.44174,-77.84054 -5.31506,-88.85999 -6.1828,-13.98042 -14.63235,-21.52136 -42.26145,-37.71694 -11.88106,-6.96441 -41.12945,-24.31558 -64.99643,-38.55816 l -43.39451,-25.89559 -13.64906,1.10879 -13.64906,1.10879 -33.81341,-20.39461 c -29.33696,-17.69464 -34.36991,-21.55643 -38.0171,-29.17054 -2.31202,-4.82677 -4.9534,-10.25688 -5.86972,-12.06691 -2.41873,-4.77777 -43.28984,-29.33645 -55.9751,-33.63439 -23.63563,-8.00806 -45.9473,-3.48586 -81.50144,16.51898 -19.83914,11.16266 -20.21637,11.52826 -21.49101,20.82773 -1.47846,10.78651 -7.76277,24.23321 -13.76136,29.44551 -5.17533,4.49694 -45.25706,28.20376 -131.32398,77.67313 -37.40741,21.50096 -71.15913,41.14252 -75.00382,43.64794 -3.84468,2.5054 -10.26208,9.95972 -14.26089,16.56514 l -7.27056,12.00989 -0.0982,76.86125 c -0.0869,68.00281 -0.52798,77.66774 -3.82695,83.85855 -4.7146,8.84735 -11.79008,13.84557 -19.59983,13.84557 h -6.09377 v 95.20717 c 0,89.2609 0.27624,96.10158 4.42307,109.52742 5.54909,17.96587 16.31466,28.25642 47.31322,45.22564 11.96918,6.55215 37.21161,20.62107 56.09429,31.26426 18.88267,10.64319 35.29697,19.35124 36.47622,19.35124 1.17925,0 7.83438,-2.51652 14.78917,-5.59224 8.56519,-3.78794 14.62412,-5.1576 18.77884,-4.24508 7.36508,1.61765 86.25736,47.31802 93.72904,54.29493 7.84871,7.329 11.42001,15.62535 11.42001,26.52943 0,9.33391 0.46668,10.04688 10.37783,15.85521 25.78093,15.10863 53.64142,19.86005 76.4348,13.03545 z m -91.2006,-30.98414 c 0,-16.50672 -3.56134,-19.88142 -49.95858,-47.3405 -23.80713,-14.08968 -45.98787,-26.28781 -49.2905,-27.10695 -6.96035,-1.72636 -28.484,5.15772 -27.33284,8.7421 0.68629,2.13687 121.30873,73.02224 124.93644,73.42054 0.90501,0.0994 1.64548,-3.37246 1.64548,-7.71519 z m 190.64707,-22.03005 c 44.10072,-25.23379 149.68373,-86.63418 170.26321,-99.01428 29.70794,-17.87155 43.57073,-32.95828 49.59921,-53.97835 1.0139,-3.53528 1.9288,-54.40895 2.03312,-113.05261 l 0.18956,-106.62481 -6.77855,-1.9815 c -8.48528,-2.48038 -16.45321,1.36049 -19.51127,9.40526 -1.27036,3.34192 -2.6311,47.90567 -3.25688,106.66338 -1.17723,110.53163 -1.60822,114.45825 -14.51913,132.28125 -8.17691,11.288 -27.57087,24.58857 -35.85326,24.58857 -3.41876,0 -10.34299,2.79884 -15.38716,6.21965 -5.04418,3.42082 -33.85356,20.81024 -64.02083,38.64318 -80.19659,47.40703 -85.608,50.90428 -88.46367,57.17174 -2.7952,6.13482 -3.46176,14.24655 -1.17064,14.24655 0.77877,0 12.87311,-6.5556 26.87629,-14.56803 z m 223.48056,-131.2673 c 6.56218,-5.89997 12.99503,-14.42389 16.14368,-21.39134 5.23322,-11.58035 5.23441,-11.60277 5.23441,-98.39663 v -86.81364 l -6.58195,-12.83801 c -3.62008,-7.06091 -7.7796,-13.23353 -9.24341,-13.71693 -2.05528,-0.67873 -2.80483,23.01732 -3.29097,104.03963 l -0.62952,104.91853 -7.58048,15.35789 c -4.16925,8.44683 -7.95387,16.09835 -8.41026,17.00337 -2.27626,4.51381 4.61888,0.59389 14.3585,-8.16287 z M 615.74641,666.22418 c 5.84971,-2.9843 13.29271,-8.23312 16.53998,-11.66403 21.43968,-22.65224 19.32661,-62.8162 -4.28886,-81.52 -9.72863,-7.70522 -25.78071,-15.64486 -31.78253,-15.72017 -2.11171,-0.0266 -3.83947,-0.57474 -3.83947,-1.21832 0,-0.64356 6.91105,-11.47087 15.35788,-24.06067 8.44684,-12.58981 15.35789,-23.87397 15.35789,-25.07592 0,-3.2309 -26.17196,-20.43 -29.27595,-19.23891 -3.14922,1.20847 -58.91786,91.10775 -63.85433,102.93341 -4.32778,10.36758 -4.44424,36.07291 -0.20777,45.8762 7.48476,17.32011 19.36647,28.19016 37.2396,34.06874 13.09124,4.3058 35.71106,2.2735 48.75365,-4.38033 z m -167.70204,-17.22532 0.62524,-22.36004 17.13076,22.36004 17.13073,22.36007 h 21.81248 c 11.99685,0 21.81245,-0.5699 21.81245,-1.26647 0,-0.69655 -10.45734,-14.05977 -23.23852,-29.69605 -26.83909,-32.83446 -26.71864,-26.58241 -1.09572,-56.86878 8.55706,-10.11448 15.5583,-20.07569 15.5583,-22.13604 0,-4.68839 -21.78197,-21.0661 -23.79412,-17.89064 -0.79019,1.24702 -11.30961,13.75652 -23.37652,27.79887 l -21.93984,25.53154 -1.09699,-44.37115 -1.09699,-44.37114 -15.35788,-11.86805 -15.35789,-11.86804 -1.36637,23.84401 c -0.7515,13.11419 -1.49197,55.19053 -1.64548,93.50297 l -0.27912,69.65897 h 17.47512 17.4751 z M 184.41614,495.77523 c 10.52741,-5.63411 11.05519,-10.23419 10.38165,-90.48593 -0.61029,-72.71533 -0.4824,-75.40763 4.03613,-84.96772 2.56652,-5.43011 8.49027,-13.45407 13.1639,-17.83105 4.67364,-4.37697 50.9511,-32.41558 102.8388,-62.30803 51.88771,-29.89244 98.63773,-57.28072 103.88894,-60.86283 5.89473,-4.02109 11.12264,-9.98137 13.66422,-15.57839 4.81349,-10.60023 5.40937,-18.93837 1.35342,-18.93837 -4.56546,0 -234.17374,139.07027 -244.8303,148.29002 -5.41374,4.68381 -11.86299,13.2055 -14.70552,19.43106 -4.99801,10.94642 -5.06578,12.18554 -5.28566,96.65392 -0.12251,47.06095 -0.16924,86.30583 -0.10386,87.21084 0.17468,2.41808 10.70781,2.00377 15.59828,-0.61352 z m -19.39103,-87.14581 c 0.61871,-86.94013 0.63693,-87.24393 5.86785,-97.86987 2.88596,-5.86248 8.44568,-13.85751 12.35494,-17.76677 3.90925,-3.90926 28.94538,-20.3058 55.63583,-36.43676 26.69046,-16.13096 48.5281,-30.10318 48.5281,-31.04937 0,-5.87343 -17.18777,2.663 -80.08039,39.77255 -45.64737,26.93403 -49.74796,30.04159 -56.70859,42.97547 -4.59992,8.54733 -4.72295,10.96749 -4.72295,92.90309 v 84.12718 l 6.58195,5.26677 c 3.62007,2.89671 7.7836,5.27166 9.25228,5.27764 2.04282,0.009 2.81618,-20.48313 3.29098,-87.19993 z M 693.21875,202.09625 c 5.3983,-1.50497 5.39562,-1.51242 -2.19398,-6.08491 -44.0784,-26.55575 -83.12395,-49.01445 -85.21403,-49.01445 -3.40103,0 1.96105,10.53303 8.2675,16.24027 8.49243,7.68554 64.91036,40.63363 69.3476,40.49902 2.41339,-0.0732 6.8202,-0.81118 9.79291,-1.63993 z m -95.31794,-76.4907 c -3.62525,-24.2975 -13.58916,-36.532275 -38.27537,-46.998626 -14.42764,-6.116958 -19.21362,-7.061153 -36.36039,-7.173307 -32.09304,-0.209916 -56.47307,11.00321 -72.02042,33.124403 -5.48321,7.80165 -11.40848,26.62745 -9.11105,28.94767 0.41919,0.42333 9.46597,-4.09615 20.10396,-10.0433 24.45754,-13.67291 34.92018,-17.75198 50.11332,-19.53763 17.44318,-2.0501 35.60954,3.57623 61.53426,19.05785 11.97976,7.15403 22.63395,13.01566 23.67598,13.02584 1.04203,0.0101 1.19491,-4.67112 0.33971,-10.4029 z"
       id="path366" />
  </g>
</svg>
